<svg xmlns="http://www.w3.org/2000/svg" viewBox="0 0 200 200" width="200" height="200" role="img">
<defs><linearGradient id="g" x1="0" y1="0" x2="1" y2="1"><stop offset="0" stop-color="#7C5CF2"/><stop offset="1" stop-color="#4A2FD1"/></linearGradient></defs>
<rect width="200" height="200" rx="36" fill="url(#g)"/>
<circle cx="168" cy="28" r="52" fill="#fff" opacity=".07"/><circle cx="26" cy="182" r="40" fill="#fff" opacity=".06"/>
<circle cx="100" cy="86" r="26" fill="#FBBF24"/><rect x="97" y="40" width="6" height="14" rx="3" transform="rotate(0 100 86)" fill="#FBBF24"/><rect x="97" y="40" width="6" height="14" rx="3" transform="rotate(45 100 86)" fill="#FBBF24"/><rect x="97" y="40" width="6" height="14" rx="3" transform="rotate(90 100 86)" fill="#FBBF24"/><rect x="97" y="40" width="6" height="14" rx="3" transform="rotate(135 100 86)" fill="#FBBF24"/><rect x="97" y="40" width="6" height="14" rx="3" transform="rotate(180 100 86)" fill="#FBBF24"/><rect x="97" y="40" width="6" height="14" rx="3" transform="rotate(225 100 86)" fill="#FBBF24"/><rect x="97" y="40" width="6" height="14" rx="3" transform="rotate(270 100 86)" fill="#FBBF24"/><rect x="97" y="40" width="6" height="14" rx="3" transform="rotate(315 100 86)" fill="#FBBF24"/>
    <rect x="68" y="122" width="64" height="38" rx="10" fill="#FFFFFF"/><rect x="76" y="114" width="48" height="12" rx="6" fill="#DDD6FE"/><path d="M146 137L148.1 141.9L153 144L148.1 146.1L146 151L143.9 146.1L139 144L143.9 141.9Z" fill="#DDD6FE"/>
</svg>
